<svg xmlns="http://www.w3.org/2000/svg" viewBox="0 0 100 52.9" class="building"><path d="m99.2 50.9-3 0 0-42.9 2.2 0c0.3 0 0.5-0.4 0.2-0.6l-9.3-6.8c-1.1-0.7-2.8-0.7-4 0l-7.5 5.4-7.3-5.4c-1.1-0.7-2.8-0.7-4 0l-7.5 5.4-7.3-5.4c-1.1-0.7-2.8-0.7-4 0l-7.5 5.4-7.3-5.4c-1.1-0.7-2.8-0.7-4 0l-7.5 5.4-7.3-5.4c-1.1-0.7-2.8-0.7-4 0l-9.7 7c-0.2 0.1-0.1 0.5 0.1 0.5l2.7 0 0 42.9-2.9 0c-0.4 0-0.8 0.4-0.8 0.8l0 0.4c0 0.4 0.4 0.8 0.8 0.8l18.7 0 4.8 0 13.9 0 4.8 0 13.9 0 4.8 0 13.9 0 4.8 0 18.7 0c0.4 0 0.8-0.4 0.8-0.8l0-0.4c0-0.4-0.3-0.8-0.8-0.8zm-89.8-37.6 2.2 0c0.3 0 0.5 0.2 0.5 0.5l0 1.5c0 0.3-0.2 0.5-0.5 0.5l-2.2 0c-0.3 0-0.5-0.2-0.5-0.5l0-1.5c0-0.3 0.2-0.5 0.5-0.5zm-0.5-1.4 0-1.5c0-0.3 0.2-0.5 0.5-0.5l2.2 0c0.3 0 0.5 0.2 0.5 0.5l0 1.5c0 0.3-0.2 0.5-0.5 0.5l-2.2 0c-0.3 0-0.5-0.2-0.5-0.5zm0.5 8.9 2.2 0c0.3 0 0.5 0.2 0.5 0.5l0 1.5c0 0.3-0.2 0.5-0.5 0.5l-2.2 0c-0.3 0-0.5-0.2-0.5-0.5l0-1.5c0-0.3 0.2-0.5 0.5-0.5zm0 3.4 2.2 0c0.3 0 0.5 0.2 0.5 0.5l0 1.5c0 0.3-0.2 0.5-0.5 0.5l-2.2 0c-0.3 0-0.5-0.2-0.5-0.5l0-1.5c0-0.3 0.2-0.5 0.5-0.5zm2.8 24c0 0.3-0.2 0.5-0.5 0.5l-2.2 0c-0.3 0-0.5-0.2-0.5-0.5l0-1.5c0-0.3 0.2-0.5 0.5-0.5l2.2 0c0.3 0 0.5 0.2 0.5 0.5l0 1.5zm0-3.4c0 0.3-0.2 0.5-0.5 0.5l-2.2 0c-0.3 0-0.5-0.2-0.5-0.5l0-1.5c0-0.3 0.2-0.5 0.5-0.5l2.2 0c0.3 0 0.5 0.2 0.5 0.5l0 1.5zm0-7.5c0 0.3-0.2 0.5-0.5 0.5l-2.2 0c-0.3 0-0.5-0.2-0.5-0.5l0-1.5c0-0.3 0.2-0.5 0.5-0.5l2.2 0c0.3 0 0.5 0.2 0.5 0.5l0 1.5zm0-3.4c0 0.3-0.2 0.5-0.5 0.5l-2.2 0c-0.3 0-0.5-0.2-0.5-0.5l0-1.5c0-0.3 0.2-0.5 0.5-0.5l2.2 0c0.3 0 0.5 0.2 0.5 0.5l0 1.5zm1.2-20.5 2.2 0c0.3 0 0.5 0.2 0.5 0.5l0 1.5c0 0.3-0.2 0.5-0.5 0.5l-2.2 0c-0.3 0-0.5-0.2-0.5-0.5l0-1.5c0-0.3 0.2-0.5 0.5-0.5zm-0.5-1.4 0-1.5c0-0.3 0.2-0.5 0.5-0.5l2.2 0c0.3 0 0.5 0.2 0.5 0.5l0 1.5c0 0.3-0.2 0.5-0.5 0.5l-2.2 0c-0.3 0-0.5-0.2-0.5-0.5zm0.5 8.9 2.2 0c0.3 0 0.5 0.2 0.5 0.5l0 1.5c0 0.3-0.2 0.5-0.5 0.5l-2.2 0c-0.3 0-0.5-0.2-0.5-0.5l0-1.5c0-0.3 0.2-0.5 0.5-0.5zm0 3.4 2.2 0c0.3 0 0.5 0.2 0.5 0.5l0 1.5c0 0.3-0.2 0.5-0.5 0.5l-2.2 0c-0.3 0-0.5-0.2-0.5-0.5l0-1.5c0-0.3 0.2-0.5 0.5-0.5zm2.8 24c0 0.3-0.2 0.5-0.5 0.5l-2.2 0c-0.3 0-0.5-0.2-0.5-0.5l0-1.5c0-0.3 0.2-0.5 0.5-0.5l2.2 0c0.3 0 0.5 0.2 0.5 0.5l0 1.5zm0-3.4c0 0.3-0.2 0.5-0.5 0.5l-2.2 0c-0.3 0-0.5-0.2-0.5-0.5l0-1.5c0-0.3 0.2-0.5 0.5-0.5l2.2 0c0.3 0 0.5 0.2 0.5 0.5l0 1.5zm0-7.5c0 0.3-0.2 0.5-0.5 0.5l-2.2 0c-0.3 0-0.5-0.2-0.5-0.5l0-1.5c0-0.3 0.2-0.5 0.5-0.5l2.2 0c0.3 0 0.5 0.2 0.5 0.5l0 1.5zm0-3.4c0 0.3-0.2 0.5-0.5 0.5l-2.2 0c-0.3 0-0.5-0.2-0.5-0.5l0-1.5c0-0.3 0.2-0.5 0.5-0.5l2.2 0c0.3 0 0.5 0.2 0.5 0.5l0 1.5zm3-25.8-1.6 0-5-3.4-5 3.4-1.6 0c-0.2 0-0.3-0.2-0.1-0.4l6.4-4.7c0.2-0.2 0.6-0.2 0.8 0l6.4 4.7c0.1 0.1 0 0.4-0.1 0.4zm3.2 42.9-1.1 0 0-42.9 1.1 0 0 42.9zm5.7-37.6 2.2 0c0.3 0 0.5 0.2 0.5 0.5l0 1.5c0 0.3-0.2 0.5-0.5 0.5l-2.2 0c-0.3 0-0.5-0.2-0.5-0.5l0-1.5c0-0.3 0.2-0.5 0.5-0.5zm-0.5-1.4 0-1.5c0-0.3 0.2-0.5 0.5-0.5l2.2 0c0.3 0 0.5 0.2 0.5 0.5l0 1.5c0 0.3-0.2 0.5-0.5 0.5l-2.2 0c-0.3 0-0.5-0.2-0.5-0.5zm0.5 8.9 2.2 0c0.3 0 0.5 0.2 0.5 0.5l0 1.5c0 0.3-0.2 0.5-0.5 0.5l-2.2 0c-0.3 0-0.5-0.2-0.5-0.5l0-1.5c0-0.3 0.2-0.5 0.5-0.5zm0 3.4 2.2 0c0.3 0 0.5 0.2 0.5 0.5l0 1.5c0 0.3-0.2 0.5-0.5 0.5l-2.2 0c-0.3 0-0.5-0.2-0.5-0.5l0-1.5c0-0.3 0.2-0.5 0.5-0.5zm2.8 24c0 0.3-0.2 0.5-0.5 0.5l-2.2 0c-0.3 0-0.5-0.2-0.5-0.5l0-1.5c0-0.3 0.2-0.5 0.5-0.5l2.2 0c0.3 0 0.5 0.2 0.5 0.5l0 1.5zm0-3.4c0 0.3-0.2 0.5-0.5 0.5l-2.2 0c-0.3 0-0.5-0.2-0.5-0.5l0-1.5c0-0.3 0.2-0.5 0.5-0.5l2.2 0c0.3 0 0.5 0.2 0.5 0.5l0 1.5zm0-7.5c0 0.3-0.2 0.5-0.5 0.5l-2.2 0c-0.3 0-0.5-0.2-0.5-0.5l0-1.5c0-0.3 0.2-0.5 0.5-0.5l2.2 0c0.3 0 0.5 0.2 0.5 0.5l0 1.5zm0-3.4c0 0.3-0.2 0.5-0.5 0.5l-2.2 0c-0.3 0-0.5-0.2-0.5-0.5l0-1.5c0-0.3 0.2-0.5 0.5-0.5l2.2 0c0.3 0 0.5 0.2 0.5 0.5l0 1.5zm1.2-20.5 2.2 0c0.3 0 0.5 0.2 0.5 0.5l0 1.5c0 0.3-0.2 0.5-0.5 0.5l-2.2 0c-0.3 0-0.5-0.2-0.5-0.5l0-1.5c0-0.3 0.2-0.5 0.5-0.5zm-0.5-1.4 0-1.5c0-0.3 0.2-0.5 0.5-0.5l2.2 0c0.3 0 0.5 0.2 0.5 0.5l0 1.5c0 0.3-0.2 0.5-0.5 0.5l-2.2 0c-0.3 0-0.5-0.2-0.5-0.5zm0.5 8.9 2.2 0c0.3 0 0.5 0.2 0.5 0.5l0 1.5c0 0.3-0.2 0.5-0.5 0.5l-2.2 0c-0.3 0-0.5-0.2-0.5-0.5l0-1.5c0-0.3 0.2-0.5 0.5-0.5zm0 3.4 2.2 0c0.3 0 0.5 0.2 0.5 0.5l0 1.5c0 0.3-0.2 0.5-0.5 0.5l-2.2 0c-0.3 0-0.5-0.2-0.5-0.5l0-1.5c0-0.3 0.2-0.5 0.5-0.5zm2.8 24c0 0.3-0.2 0.5-0.5 0.5l-2.2 0c-0.3 0-0.5-0.2-0.5-0.5l0-1.5c0-0.3 0.2-0.5 0.5-0.5l2.2 0c0.3 0 0.5 0.2 0.5 0.5l0 1.5zm0-3.4c0 0.3-0.2 0.5-0.5 0.5l-2.2 0c-0.3 0-0.5-0.2-0.5-0.5l0-1.5c0-0.3 0.2-0.5 0.5-0.5l2.2 0c0.3 0 0.5 0.2 0.5 0.5l0 1.5zm0-7.5c0 0.3-0.2 0.5-0.5 0.5l-2.2 0c-0.3 0-0.5-0.2-0.5-0.5l0-1.5c0-0.3 0.2-0.5 0.5-0.5l2.2 0c0.3 0 0.5 0.2 0.5 0.5l0 1.5zm0-3.4c0 0.3-0.2 0.5-0.5 0.5l-2.2 0c-0.3 0-0.5-0.2-0.5-0.5l0-1.5c0-0.3 0.2-0.5 0.5-0.5l2.2 0c0.3 0 0.5 0.2 0.5 0.5l0 1.5zm3-25.8-1.6 0-5-3.4-5 3.4-1.6 0c-0.2 0-0.3-0.2-0.1-0.4l6.4-4.7c0.2-0.2 0.6-0.2 0.8 0l6.4 4.7c0.1 0.1 0 0.4-0.1 0.4zm3.2 42.9-1.1 0 0-42.9 1.1 0 0 42.9zm5.7-37.6 2.2 0c0.3 0 0.5 0.2 0.5 0.5l0 1.5c0 0.3-0.2 0.5-0.5 0.5l-2.2 0c-0.3 0-0.5-0.2-0.5-0.5l0-1.5c0-0.3 0.2-0.5 0.5-0.5zm-0.5-1.4 0-1.5c0-0.3 0.2-0.5 0.5-0.5l2.2 0c0.3 0 0.5 0.2 0.5 0.5l0 1.5c0 0.3-0.2 0.5-0.5 0.5l-2.2 0c-0.3 0-0.5-0.2-0.5-0.5zm0.5 8.9 2.2 0c0.3 0 0.5 0.2 0.5 0.5l0 1.5c0 0.3-0.2 0.5-0.5 0.5l-2.2 0c-0.3 0-0.5-0.2-0.5-0.5l0-1.5c0-0.3 0.2-0.5 0.5-0.5zm0 3.4 2.2 0c0.3 0 0.5 0.2 0.5 0.5l0 1.5c0 0.3-0.2 0.5-0.5 0.5l-2.2 0c-0.3 0-0.5-0.2-0.5-0.5l0-1.5c0-0.3 0.2-0.5 0.5-0.5zm2.8 24c0 0.3-0.2 0.5-0.5 0.5l-2.2 0c-0.3 0-0.5-0.2-0.5-0.5l0-1.5c0-0.3 0.2-0.5 0.5-0.5l2.2 0c0.3 0 0.5 0.2 0.5 0.5l0 1.5zm0-3.4c0 0.3-0.2 0.5-0.5 0.5l-2.2 0c-0.3 0-0.5-0.2-0.5-0.5l0-1.5c0-0.3 0.2-0.5 0.5-0.5l2.2 0c0.3 0 0.5 0.2 0.5 0.5l0 1.5zm0-7.5c0 0.3-0.2 0.5-0.5 0.5l-2.2 0c-0.3 0-0.5-0.2-0.5-0.5l0-1.5c0-0.3 0.2-0.5 0.5-0.5l2.2 0c0.3 0 0.5 0.2 0.5 0.5l0 1.5zm0-3.4c0 0.3-0.2 0.5-0.5 0.5l-2.2 0c-0.3 0-0.5-0.2-0.5-0.5l0-1.5c0-0.3 0.2-0.5 0.5-0.5l2.2 0c0.3 0 0.5 0.2 0.5 0.5l0 1.5zm1.2-20.5 2.2 0c0.3 0 0.5 0.2 0.5 0.5l0 1.5c0 0.3-0.2 0.5-0.5 0.5l-2.2 0c-0.3 0-0.5-0.2-0.5-0.5l0-1.5c0-0.3 0.2-0.5 0.5-0.5zm-0.5-1.4 0-1.5c0-0.3 0.2-0.5 0.5-0.5l2.2 0c0.3 0 0.5 0.2 0.5 0.5l0 1.5c0 0.3-0.2 0.5-0.5 0.5l-2.2 0c-0.3 0-0.5-0.2-0.5-0.5zm0.5 8.9 2.2 0c0.3 0 0.5 0.2 0.5 0.5l0 1.5c0 0.3-0.2 0.5-0.5 0.5l-2.2 0c-0.3 0-0.5-0.2-0.5-0.5l0-1.5c0-0.3 0.2-0.5 0.5-0.5zm0 3.4 2.2 0c0.3 0 0.5 0.2 0.5 0.5l0 1.5c0 0.3-0.2 0.5-0.5 0.5l-2.2 0c-0.3 0-0.5-0.2-0.5-0.5l0-1.5c0-0.3 0.2-0.5 0.5-0.5zm2.8 24c0 0.3-0.2 0.5-0.5 0.5l-2.2 0c-0.3 0-0.5-0.2-0.5-0.5l0-1.5c0-0.3 0.2-0.5 0.5-0.5l2.2 0c0.3 0 0.5 0.2 0.5 0.5l0 1.5zm0-3.4c0 0.3-0.2 0.5-0.5 0.5l-2.2 0c-0.3 0-0.5-0.2-0.5-0.5l0-1.5c0-0.3 0.2-0.5 0.5-0.5l2.2 0c0.3 0 0.5 0.2 0.5 0.5l0 1.5zm0-7.5c0 0.3-0.2 0.5-0.5 0.5l-2.2 0c-0.3 0-0.5-0.2-0.5-0.5l0-1.5c0-0.3 0.2-0.5 0.5-0.5l2.2 0c0.3 0 0.5 0.2 0.5 0.5l0 1.5zm0-3.4c0 0.3-0.2 0.5-0.5 0.5l-2.2 0c-0.3 0-0.5-0.2-0.5-0.5l0-1.5c0-0.3 0.2-0.5 0.5-0.5l2.2 0c0.3 0 0.5 0.2 0.5 0.5l0 1.5zm3-25.8-1.6 0-5-3.4-5 3.4-1.6 0c-0.2 0-0.3-0.2-0.1-0.4l6.4-4.7c0.2-0.2 0.6-0.2 0.8 0l6.4 4.7c0.1 0.1 0 0.4-0.1 0.4zm3.2 42.9-1.1 0 0-42.9 1.1 0 0 42.9zm5.7-37.6 2.2 0c0.3 0 0.5 0.2 0.5 0.5l0 1.5c0 0.3-0.2 0.5-0.5 0.5l-2.2 0c-0.3 0-0.5-0.2-0.5-0.5l0-1.5c0-0.3 0.2-0.5 0.5-0.5zm-0.5-1.4 0-1.5c0-0.3 0.2-0.5 0.5-0.5l2.2 0c0.3 0 0.5 0.2 0.5 0.5l0 1.5c0 0.3-0.2 0.5-0.5 0.5l-2.2 0c-0.3 0-0.5-0.2-0.5-0.5zm0.5 8.9 2.2 0c0.3 0 0.5 0.2 0.5 0.5l0 1.5c0 0.3-0.2 0.5-0.5 0.5l-2.2 0c-0.3 0-0.5-0.2-0.5-0.5l0-1.5c0-0.3 0.2-0.5 0.5-0.5zm0 3.4 2.2 0c0.3 0 0.5 0.2 0.5 0.5l0 1.5c0 0.3-0.2 0.5-0.5 0.5l-2.2 0c-0.3 0-0.5-0.2-0.5-0.5l0-1.5c0-0.3 0.2-0.5 0.5-0.5zm2.8 24c0 0.3-0.2 0.5-0.5 0.5l-2.2 0c-0.3 0-0.5-0.2-0.5-0.5l0-1.5c0-0.3 0.2-0.5 0.5-0.5l2.2 0c0.3 0 0.5 0.2 0.5 0.5l0 1.5zm0-3.4c0 0.3-0.2 0.5-0.5 0.5l-2.2 0c-0.3 0-0.5-0.2-0.5-0.5l0-1.5c0-0.3 0.2-0.5 0.5-0.5l2.2 0c0.3 0 0.5 0.2 0.5 0.5l0 1.5zm0-7.5c0 0.3-0.2 0.5-0.5 0.5l-2.2 0c-0.3 0-0.5-0.2-0.5-0.5l0-1.5c0-0.3 0.2-0.5 0.5-0.5l2.2 0c0.3 0 0.5 0.2 0.5 0.5l0 1.5zm0-3.4c0 0.3-0.2 0.5-0.5 0.5l-2.2 0c-0.3 0-0.5-0.2-0.5-0.5l0-1.5c0-0.3 0.2-0.5 0.5-0.5l2.2 0c0.3 0 0.5 0.2 0.5 0.5l0 1.5zm1.2-20.5 2.2 0c0.3 0 0.5 0.2 0.5 0.5l0 1.5c0 0.3-0.2 0.5-0.5 0.5l-2.2 0c-0.3 0-0.5-0.2-0.5-0.5l0-1.5c0-0.3 0.2-0.5 0.5-0.5zm-0.5-1.4 0-1.5c0-0.3 0.2-0.5 0.5-0.5l2.2 0c0.3 0 0.5 0.2 0.5 0.5l0 1.5c0 0.3-0.2 0.5-0.5 0.5l-2.2 0c-0.3 0-0.5-0.2-0.5-0.5zm0.5 8.9 2.2 0c0.3 0 0.5 0.2 0.5 0.5l0 1.5c0 0.3-0.2 0.5-0.5 0.5l-2.2 0c-0.3 0-0.5-0.2-0.5-0.5l0-1.5c0-0.3 0.2-0.5 0.5-0.5zm0 3.4 2.2 0c0.3 0 0.5 0.2 0.5 0.5l0 1.5c0 0.3-0.2 0.5-0.5 0.5l-2.2 0c-0.3 0-0.5-0.2-0.5-0.5l0-1.5c0-0.3 0.2-0.5 0.5-0.5zm2.8 24c0 0.3-0.2 0.5-0.5 0.5l-2.2 0c-0.3 0-0.5-0.2-0.5-0.5l0-1.5c0-0.3 0.2-0.5 0.5-0.5l2.2 0c0.3 0 0.5 0.2 0.5 0.5l0 1.5zm0-3.4c0 0.3-0.2 0.5-0.5 0.5l-2.2 0c-0.3 0-0.5-0.2-0.5-0.5l0-1.5c0-0.3 0.2-0.5 0.5-0.5l2.2 0c0.3 0 0.5 0.2 0.5 0.5l0 1.5zm0-7.5c0 0.3-0.2 0.5-0.5 0.5l-2.2 0c-0.3 0-0.5-0.2-0.5-0.5l0-1.5c0-0.3 0.2-0.5 0.5-0.5l2.2 0c0.3 0 0.5 0.2 0.5 0.5l0 1.5zm0-3.4c0 0.3-0.2 0.5-0.5 0.5l-2.2 0c-0.3 0-0.5-0.2-0.5-0.5l0-1.5c0-0.3 0.2-0.5 0.5-0.5l2.2 0c0.3 0 0.5 0.2 0.5 0.5l0 1.5zm3-25.8-1.6 0-5-3.4-5 3.4-1.6 0c-0.2 0-0.3-0.2-0.1-0.4l6.4-4.7c0.2-0.2 0.6-0.2 0.8 0l6.4 4.7c0.1 0.1 0 0.4-0.1 0.4zm3.2 42.9-1.1 0 0-42.9 1.1 0 0 42.9zm5.7-37.6 2.2 0c0.3 0 0.5 0.2 0.5 0.5l0 1.5c0 0.3-0.2 0.5-0.5 0.5l-2.2 0c-0.3 0-0.5-0.2-0.5-0.5l0-1.5c0-0.3 0.2-0.5 0.5-0.5zm-0.5-1.4 0-1.5c0-0.3 0.2-0.5 0.5-0.5l2.2 0c0.3 0 0.5 0.2 0.5 0.5l0 1.5c0 0.3-0.2 0.5-0.5 0.5l-2.2 0c-0.3 0-0.5-0.2-0.5-0.5zm0.5 8.9 2.2 0c0.3 0 0.5 0.2 0.5 0.5l0 1.5c0 0.3-0.2 0.5-0.5 0.5l-2.2 0c-0.3 0-0.5-0.2-0.5-0.5l0-1.5c0-0.3 0.2-0.5 0.5-0.5zm0 3.4 2.2 0c0.3 0 0.5 0.2 0.5 0.5l0 1.5c0 0.3-0.2 0.5-0.5 0.5l-2.2 0c-0.3 0-0.5-0.2-0.5-0.5l0-1.5c0-0.3 0.2-0.5 0.5-0.5zm2.8 24c0 0.3-0.2 0.5-0.5 0.5l-2.2 0c-0.3 0-0.5-0.2-0.5-0.5l0-1.5c0-0.3 0.2-0.5 0.5-0.5l2.2 0c0.3 0 0.5 0.2 0.5 0.5l0 1.5zm0-3.4c0 0.3-0.2 0.5-0.5 0.5l-2.2 0c-0.3 0-0.5-0.2-0.5-0.5l0-1.5c0-0.3 0.2-0.5 0.5-0.5l2.2 0c0.3 0 0.5 0.2 0.5 0.5l0 1.5zm0-7.5c0 0.3-0.2 0.5-0.5 0.5l-2.2 0c-0.3 0-0.5-0.2-0.5-0.5l0-1.5c0-0.3 0.2-0.5 0.5-0.5l2.2 0c0.3 0 0.5 0.2 0.5 0.5l0 1.5zm0-3.4c0 0.3-0.2 0.5-0.5 0.5l-2.2 0c-0.3 0-0.5-0.2-0.5-0.5l0-1.5c0-0.3 0.2-0.5 0.5-0.5l2.2 0c0.3 0 0.5 0.2 0.5 0.5l0 1.5zm1.2-20.5 2.2 0c0.3 0 0.5 0.2 0.5 0.5l0 1.5c0 0.3-0.2 0.5-0.5 0.5l-2.2 0c-0.3 0-0.5-0.2-0.5-0.5l0-1.5c0-0.3 0.2-0.5 0.5-0.5zm-0.5-1.4 0-1.5c0-0.3 0.2-0.5 0.5-0.5l2.2 0c0.3 0 0.5 0.2 0.5 0.5l0 1.5c0 0.3-0.2 0.5-0.5 0.5l-2.2 0c-0.3 0-0.5-0.2-0.5-0.5zm0.5 8.9 2.2 0c0.3 0 0.5 0.2 0.5 0.5l0 1.5c0 0.3-0.2 0.5-0.5 0.5l-2.2 0c-0.3 0-0.5-0.2-0.5-0.5l0-1.5c0-0.3 0.2-0.5 0.5-0.5zm0 3.4 2.2 0c0.3 0 0.5 0.2 0.5 0.5l0 1.5c0 0.3-0.2 0.5-0.5 0.5l-2.2 0c-0.3 0-0.5-0.2-0.5-0.5l0-1.5c0-0.3 0.2-0.5 0.5-0.5zm2.8 24c0 0.3-0.2 0.5-0.5 0.5l-2.2 0c-0.3 0-0.5-0.2-0.5-0.5l0-1.5c0-0.3 0.2-0.5 0.5-0.5l2.2 0c0.3 0 0.5 0.2 0.5 0.5l0 1.5zm0-3.4c0 0.3-0.2 0.5-0.5 0.5l-2.2 0c-0.3 0-0.5-0.2-0.5-0.5l0-1.5c0-0.3 0.2-0.5 0.5-0.5l2.2 0c0.3 0 0.5 0.2 0.5 0.5l0 1.5zm0-7.5c0 0.3-0.2 0.5-0.5 0.5l-2.2 0c-0.3 0-0.5-0.2-0.5-0.5l0-1.5c0-0.3 0.2-0.5 0.5-0.5l2.2 0c0.3 0 0.5 0.2 0.5 0.5l0 1.5zm0-3.4c0 0.3-0.2 0.5-0.5 0.5l-2.2 0c-0.3 0-0.5-0.2-0.5-0.5l0-1.5c0-0.3 0.2-0.5 0.5-0.5l2.2 0c0.3 0 0.5 0.2 0.5 0.5l0 1.5zm3-25.8-1.6 0-5-3.4-5 3.4-1.6 0c-0.2 0-0.3-0.2-0.1-0.4l6.4-4.7c0.2-0.2 0.6-0.2 0.8 0l6.4 4.7c0.1 0.1 0 0.4-0.1 0.4z" class="building-path"/></svg>