<svg xmlns="http://www.w3.org/2000/svg" viewBox="0 0 98.5 94.6" class="bar-graph">
  <polygon points="97 91.2 97 93.1 94.6 93.1 94.6 1.2 78.3 1.2 78.3 93.1 74.6 93.1 74.6 91.2 73.1 91.2 73.1 93.1 70.6 93.1 70.6 40.5 54.2 40.5 54.2 93.1 50.7 93.1 50.7 91.2 49.2 91.2 49.2 93.1 46.6 93.1 46.6 20.6 30.2 20.6 30.2 93.1 26.8 93.1 26.8 91.2 25.3 91.2 25.3 93.1 22.6 93.1 22.6 61.9 6.2 61.9 6.2 93.1 1.5 93.1 1.5 83.5 3.7 83.5 3.7 82 1.5 82 1.5 69.8 3.7 69.8 3.7 68.4 1.5 68.4 1.5 56.2 3.7 56.2 3.7 54.7 1.5 54.7 1.5 42.5 3.7 42.5 3.7 41 1.5 41 1.5 28.8 3.7 28.8 3.7 27.3 1.5 27.3 1.5 15.1 3.7 15.1 3.7 13.7 1.5 13.7 1.5 1.5 3.7 1.5 3.7 0 1.5 0 0.6 0 0.5 0 0 0 0 93.1 0 94.6 1.5 94.6 94.2 94.6 94.3 94.6 94.6 94.6 98.5 94.6 98.5 94.4 98.5 94.3 98.5 93.1 98.5 91.2 " class="bar-graph-polygon"/>
</svg>