<svg xmlns="http://www.w3.org/2000/svg" viewBox="0 0 508.11594 507.85101" class="binary-inspect">
    <path d="m86.7 228.8 0-30.3c0-23.3-19-42.3-42.3-42.3-23.3 0-42.4 19-42.4 42.3l0 30.3c0 23.3 19 42.3 42.3 42.3 23.3 0 42.4-18.9 42.4-42.3zm-28.2 0c0 7.8-6.3 14.1-14.1 14.1-7.8 0-14.1-6.3-14.1-14.1l0-30.3c0-7.8 6.3-14.1 14.1-14.1 7.8 0 14.1 6.3 14.1 14.1l0 30.3z" class="undefined"/>
    <path d="m100.8 116.9c23.3 0 42.3-19 42.3-42.3l0-30.3C141.1 19 122.1 0 98.8 0 75.5 0 56.5 19 56.5 42.3l0 30.3c0 23.4 18.9 42.3 42.3 42.3zM84.7 42.3c0-7.8 6.3-14.1 14.1-14.1 7.8 0 14.1 6.3 14.1 14.1l0 30.3c0 7.8-6.3 14.1-14.1 14.1-7.8 0-14.1-6.3-14.1-14.1l0-30.3z" class="undefined"/>
    <path d="m16.1 116.9c7.8 0 14.1-6.3 14.1-14.1l0-86.7C28.2 6.300000000000001 21.9 0 14.100000000000001 0 6.300000000000001 0 0 6.300000000000001 0 14.100000000000001l0 86.7c0 7.8 6.3 14.1 14.1 14.1z" class="undefined"/>
    <path d="m270.1 116.9c23.3 0 42.3-19 42.3-42.3l0-30.3C310.4 19 291.4 0 268.1 0 244.8 0 225.8 19 225.8 42.3l0 30.3c0 23.4 19 42.3 42.3 42.3zM254 42.3c0-7.8 6.3-14.1 14.1-14.1 7.8 0 14.1 6.3 14.1 14.1l0 30.3c0 7.8-6.3 14.1-14.1 14.1-7.8 0-14.1-6.3-14.1-14.1l0-30.3z" class="undefined"/>
    <path d="m185.5 116.9c7.8 0 14.1-6.3 14.1-14.1l0-86.7C197.6 6.300000000000001 191.3 0 183.5 0 175.7 0 169.4 6.300000000000001 169.4 14.100000000000001l0 86.7c-0.1 7.8 6.3 14.1 14.1 14.1z" class="undefined"/>
    <path d="m439.4 116.9c23.3 0 42.3-19 42.3-42.3l0-30.3C479.7 19 460.7 0 437.4 0 414.1 0 395.1 19 395.1 42.3l0 30.3c0 23.4 19 42.3 42.3 42.3zM423.3 42.3c0-7.8 6.3-14.1 14.1-14.1 7.8 0 14.1 6.3 14.1 14.1l0 30.3c0 7.8-6.3 14.1-14.1 14.1-7.8 0-14.1-6.3-14.1-14.1l0-30.3z" class="undefined"/>
    <path d="m354.8 116.9c7.8 0 14.1-6.3 14.1-14.1l0-86.7C366.9 6.300000000000001 360.6 0 352.8 0 345 0 338.7 6.300000000000001 338.7 14.100000000000001l0 86.7c0 7.8 6.3 14.1 14.1 14.1z" class="undefined"/>
    <path d="m100.8 306.4c-23.3 0-42.3 19-42.3 42.3l0 30.3c0 23.3 19 42.3 42.3 42.3 23.3 0 42.3-19 42.3-42.3l0-30.3c0-23.3-19-42.3-42.3-42.3zm14.1 72.6c0 7.8-6.3 14.1-14.1 14.1-7.8 0-14.1-6.3-14.1-14.1l0-30.3c0-7.8 6.3-14.1 14.1-14.1 7.8 0 14.1 6.3 14.1 14.1l0 30.3z" class="undefined"/>
    <path d="M14.100000000000001 304.4C6.300000000000001 304.4 0 310.7 0 318.5l0 86.7c0 7.8 6.3 14.1 14.1 14.1 7.8 0 14.1-6.3 14.1-14.1l0-86.7c0-7.8-6.3-14.1-14.1-14.1z" class="undefined"/>
      <path d="m434.8 271c0 0 0 0.1 0 0 0.4 0.1 0.7 0.1 0 0z" class="undefined"/>
      <path d="m435.7 306.6c1.3-11.7 0.9-23.6-0.9-35.6-0.4 0-0.8-0.1 0-0.1 23.3 0 47-13.4 47-42.2l0-30.3c0-23.3-19-42.3-42.3-42.3-21.5 0-39.4 16.2-42 37-26.4-28.4-64-46.2-105.7-46.2-36.6 0-69.9 13.7-95.4 36.2-6.2-15.8-21.5-27-39.4-27-23.3 0-42.3 19-42.3 42.3l0 30.3c0 20.6 14.7 37.7 34.2 41.5-1 7-1.8 14.1-1.8 21.4 0 79.8 64.9 144.7 144.7 144.7 24.5 0 47.6-6.2 67.9-17l78.1 78.1c15.5 16.3 44 16.9 59.9 0 17.1-17 16-43.9 0-59.9L467 407.1c7.9-7.7 12.8-18.4 12.8-30.1l0-30.3c-1.2-21.3-15.7-43.2-46.1-42.1zM423.3 196.5c0-7.8 6.3-14.1 14.1-14.1 7.8 0 14.1 6.3 14.1 14.1l0 30.3c0 7.8-6.3 14.1-14.1 14.1-7.8 0-14.1-6.3-14.1-14.1l0-30.3zm14.1 136.1c7.8 0 14.1 6.3 14.1 14.1l0 30.3c0 4-1.7 7.6-4.4 10.2l-23.8-23.8 0-16.7c1.2-8.5 5.7-13.4 14.1-14.1zM153.8 240.8c0 0-0.1 0-0.1 0-7.2-0.7-12.8-6.7-12.8-14l0-30.3c0-7.8 6.3-14.1 14.1-14.1 7.8 0 14.1 6.3 14.1 14.1l0 13.5c0 0 0 0 0 0-6.3 9.6-11.4 19.9-15.3 30.8zm136 165.4c-64.3 0-116.5-52.1-116.5-116.5 0-64.3 52.1-116.5 116.5-116.5 64.4 0 116.5 52.1 116.5 116.5-0.1 64.4-52.2 116.5-116.5 116.5zm185.8 69.4c-5.3 5.3-14.6 5.3-19.9 0l-74.1-74.1c7.3-6 14-12.7 19.9-19.9l74.1 74.1c5.1 5.4 5.8 14.2 0 19.9z" class="undefined"/>
    <path d="m291.8 213.3c-7.8 0-14.1 6.3-14.1 14.1l0 73.3c0 7.8 6.3 14.1 14.1 14.1 7.8 0 14.1-6.3 14.1-14.1l0-73.3c0-7.7-6.3-14.1-14.1-14.1z" class="undefined"/>
    <path d="m291.8 333.8c-7.8 0-14.1 6.3-14.1 14.1l0 8.2c0 7.8 6.3 14.1 14.1 14.1 7.8 0 14.1-6.3 14.1-14.1l0-8.2c0-7.8-6.3-14.1-14.1-14.1z" class="undefined"/>
</svg>