<svg xmlns="http://www.w3.org/2000/svg" xmlns:xlink="http://www.w3.org/1999/xlink" version="1.0" x="0px" y="0px" viewBox="0 0 100 125" enable-background="new 0 0 100 100" xml:space="preserve"><g><path d="M57.8730011,21.5004997c-12.8906021,0-23.377903,10.4853001-23.377903,23.3735008   c0,3.7159996,0.8757019,7.2299004,2.4252014,10.3526993L20.8603992,71.2881012   c-0.0488987,0.0488968-0.0733986,0.110199-0.1100998,0.1656952C20.0555,72.2703018,19.8271999,73.4567032,20.1362,74.7583008   c0.2950001,1.2426987,1.0419998,2.5116959,2.1040001,3.5737c1.4589996,1.4570999,3.2050991,2.2368011,4.7031994,2.2363968   c0.9155006,0,1.7392006-0.2910995,2.3471012-0.8969955c0,0,0.0005989-0.0010986,0.0009995-0.001503l15.4706001-15.4517975   c3.7416,2.5438995,8.2554016,4.0328979,13.1109009,4.0328979C70.7631989,68.2509995,81.25,57.7641983,81.25,44.8740005   C81.25,31.9857998,70.7631989,21.5004997,57.8730011,21.5004997z M57.8730011,23.5004997   C69.660202,23.5004997,79.25,33.0884018,79.25,44.8740005c0,0.3801003-0.0373993,0.7508011-0.0570984,1.1259995H73v-1   c0-0.3344994-0.1669998-0.6464996-0.4452972-0.8320007l-1.5625-1.0419998C70.9971008,43.0849991,71,43.0429993,71,43v-3   c0-0.3148994-0.1479034-0.6113014-0.3999023-0.7998009l-7.9999962-6c-0.3384018-0.2543983-0.8008003-0.267601-1.1548004-0.0321999   l-7.5918007,5.0610008l-3.3237-2.0770988c-0.3241997-0.2022018-0.7354012-0.2022018-1.0596008,0l-8,5   C41.1777,41.3349991,41,41.6553001,41,42v4h-4.4477997c-0.0196991-0.3751984-0.0571022-0.7458992-0.0571022-1.1259995   C36.4950981,33.0884018,46.0853996,23.5004997,57.8730011,23.5004997z M65,55h-4v-6h4V55z M66,47h-6c-0.5522003,0-1,0.4477997-1,1   v7h-4v-4v-5.4648018l3.5546989-2.3696976L63,40.2016983l8,5.3334999V55h-4v-7C67,47.4477997,66.5522003,47,66,47z M47,50v-4h2v4H47   z M50,44h-4c-0.5522003,0-1,0.4477997-1,1v5h-2v-7.4458008l7-4.375l6.4146004,4.0093002l-2.9692993,1.9794998   C53.1669998,44.3535004,53,44.6655006,53,45v5h-2v-5C51,44.4477997,50.5522003,44,50,44z M55.7144012,39.3921013l6.2514-4.1674995   L69,40.5v1.2983017l-5.4453011-3.6303024C63.3866997,38.0561981,63.1934013,38,63,38s-0.3866997,0.0561981-0.5546989,0.1679993   l-4.2046013,2.8031998L55.7144012,39.3921013z M27.8799,78.2534027c-0.0004005,0.0003967-0.0011005,0.0005951-0.0014992,0.0009995   c-0.6816006,0.6786957-2.6347008,0.2509995-4.2246017-1.3368988c-0.7909985-0.7915039-1.3641987-1.7471008-1.5717983-2.6216049   c-0.1669998-0.703598-0.0825005-1.2875977,0.2319984-1.6020966c0.0275002-0.0274048,0.0383015-0.0634003,0.0619011-0.0932007   l15.5491982-15.5505028c1.3914032,2.2709007,3.160202,4.2854004,5.2174034,5.9594002L27.8799,78.2534027z M57.8730011,66.2509995   c-10.7229996,0-19.6020012-7.9441986-21.1229019-18.2509995H41v3c0,0.5522003,0.4477997,1,1,1h4h4h3v4c0,0.5522003,0.4477997,1,1,1   h6h6h6c0.5522003,0,1-0.4477997,1-1v-8h5.9951019C77.4741974,58.3068008,68.5955963,66.2509995,57.8730011,66.2509995z"/></g><text x="0" y="115" fill="#000000" font-size="5px" font-weight="bold" font-family="'Helvetica Neue', Helvetica, Arial-Unicode, Arial, Sans-serif">Created by Yu luck</text><text x="0" y="120" fill="#000000" font-size="5px" font-weight="bold" font-family="'Helvetica Neue', Helvetica, Arial-Unicode, Arial, Sans-serif">from the Noun Project</text></svg>