<?xml version="1.0" encoding="utf-8"?>
<!-- Generator: Adobe Illustrator 19.0.1, SVG Export Plug-In . SVG Version: 6.00 Build 0)  -->
<svg version="1.1" id="Layer_1" xmlns="http://www.w3.org/2000/svg" xmlns:xlink="http://www.w3.org/1999/xlink" x="0px" y="0px"
	 width="70px" height="70px" viewBox="0 0 70 70" enable-background="new 0 0 70 70" xml:space="preserve">
<g>
	<g id="XMLID_1_">
		<g>
			<path fill="#FBD000" d="M65.12,58.65c0,1.51-1.17,2.71-2.67,2.71H7.55c-1.5,0-2.67-1.2-2.67-2.71c0-1.11,0.52-2.32,1.26-3.62
				c0.01-0.01,0-0.02,0-0.03l26.59-44.95c0.65-1.08,1.13-1.41,2.27-1.41s1.62,0.33,2.27,1.41L63.86,55c0,0.01-0.01,0.03,0,0.03
				C64.6,56.33,65.12,57.54,65.12,58.65z"/>
			<path d="M67.12,53.12c0.87,1.5,1.77,3.33,1.77,5.53c0,3.55-2.9,6.47-6.44,6.47H7.55c-3.54,0-6.44-2.92-6.44-6.47
				c0-2.2,0.9-4.03,1.77-5.53c0.01,0,0.02,0,0.03,0L29.5,8.11c1.12-1.89,3.15-3.23,5.5-3.23s4.38,1.34,5.5,3.23l26.59,45.01
				C67.1,53.12,67.11,53.12,67.12,53.12z M62.45,61.36c1.5,0,2.67-1.2,2.67-2.71c0-1.11-0.52-2.32-1.26-3.62c-0.01,0,0-0.02,0-0.03
				L37.27,10.05C36.62,8.97,36.14,8.64,35,8.64s-1.62,0.33-2.27,1.41L6.14,55c0,0.01,0.01,0.02,0,0.03
				c-0.74,1.3-1.26,2.51-1.26,3.62c0,1.51,1.17,2.71,2.67,2.71H62.45z"/>
		</g>
		<g>
		</g>
	</g>
</g>
</svg>
