<?xml version="1.0" encoding="UTF-8" standalone="no"?>
<svg
   xmlns:dc="http://purl.org/dc/elements/1.1/"
   xmlns:cc="http://creativecommons.org/ns#"
   xmlns:rdf="http://www.w3.org/1999/02/22-rdf-syntax-ns#"
   xmlns:svg="http://www.w3.org/2000/svg"
   xmlns="http://www.w3.org/2000/svg"
   xmlns:sodipodi="http://sodipodi.sourceforge.net/DTD/sodipodi-0.dtd"
   xmlns:inkscape="http://www.inkscape.org/namespaces/inkscape"
   version="1.1"
   x="0px"
   y="0px"
   viewBox="0 0 37.700001 47"
   enable-background="new 0 0 48 48"
   xml:space="preserve"
   id="svg3342"
   inkscape:version="0.91 r13725"
   sodipodi:docname="binary-icon.svg"
   width="37.700001"
   height="47"><metadata
     id="metadata3374"><rdf:RDF><cc:Work
         rdf:about=""><dc:format>image/svg+xml</dc:format><dc:type
           rdf:resource="http://purl.org/dc/dcmitype/StillImage" /><dc:title></dc:title></cc:Work></rdf:RDF></metadata><defs
     id="defs3372" /><sodipodi:namedview
     pagecolor="#ffffff"
     bordercolor="#666666"
     borderopacity="1"
     objecttolerance="10"
     gridtolerance="10"
     guidetolerance="10"
     inkscape:pageopacity="0"
     inkscape:pageshadow="2"
     inkscape:window-width="1266"
     inkscape:window-height="688"
     id="namedview3370"
     showgrid="false"
     fit-margin-top="0"
     fit-margin-left="0"
     fit-margin-right="0"
     fit-margin-bottom="0"
     inkscape:zoom="3.9333333"
     inkscape:cx="-5.0983051"
     inkscape:cy="17.5"
     inkscape:window-x="0"
     inkscape:window-y="0"
     inkscape:window-maximized="0"
     inkscape:current-layer="svg3342" /><g
     id="g3344"
     transform="translate(-5.2,-0.5)"><path
       d="m 32.7,38.6 c -0.6,0 -1,0.2 -1.3,0.7 -0.3,0.5 -0.4,1.1 -0.4,1.9 0,0.8 0.1,1.4 0.4,1.9 0.3,0.5 0.7,0.7 1.3,0.7 0.6,0 1,-0.2 1.3,-0.7 0.3,-0.5 0.4,-1.1 0.4,-1.9 0,-0.8 -0.1,-1.4 -0.4,-1.9 -0.3,-0.5 -0.7,-0.7 -1.3,-0.7 z"
       id="path3346"
       inkscape:connector-curvature="0"
       style="fill:#000000" /><path
       d="m 32.7,29.2 c -0.6,0 -1,0.2 -1.3,0.7 -0.2,0.4 -0.4,1.1 -0.4,1.8 0,0.8 0.1,1.4 0.4,1.9 0.3,0.5 0.7,0.7 1.3,0.7 0.6,0 1,-0.2 1.3,-0.7 0.3,-0.5 0.4,-1.1 0.4,-1.9 0,-0.8 -0.1,-1.4 -0.4,-1.9 -0.3,-0.4 -0.7,-0.6 -1.3,-0.6 z"
       id="path3348"
       inkscape:connector-curvature="0"
       style="fill:#000000" /><path
       d="m 22.1,29.2 c -0.6,0 -1,0.2 -1.3,0.7 -0.3,0.5 -0.4,1.1 -0.4,1.9 0,0.8 0.1,1.4 0.4,1.9 0.3,0.5 0.7,0.7 1.3,0.7 0.6,0 1,-0.2 1.3,-0.7 0.3,-0.5 0.4,-1.1 0.4,-1.9 0,-0.8 -0.1,-1.4 -0.4,-1.9 -0.3,-0.5 -0.7,-0.7 -1.3,-0.7 z"
       id="path3350"
       inkscape:connector-curvature="0"
       style="fill:#000000" /><path
       d="m 25.9,19.4 c -0.6,0 -1,0.2 -1.3,0.7 -0.3,0.5 -0.4,1.1 -0.4,1.9 0,0.8 0.1,1.4 0.4,1.9 0.3,0.5 0.7,0.7 1.3,0.7 0.6,0 1,-0.2 1.3,-0.7 0.3,-0.5 0.4,-1.1 0.4,-1.9 0,-0.8 -0.1,-1.4 -0.4,-1.9 -0.3,-0.5 -0.7,-0.7 -1.3,-0.7 z"
       id="path3352"
       inkscape:connector-curvature="0"
       style="fill:#000000" /><path
       d="m 18.3,38.6 c -0.6,0 -1,0.2 -1.3,0.7 -0.3,0.5 -0.4,1.1 -0.4,1.9 0,0.8 0.1,1.4 0.4,1.9 0.3,0.5 0.7,0.7 1.3,0.7 0.6,0 1,-0.2 1.3,-0.7 0.3,-0.5 0.4,-1.1 0.4,-1.9 0,-0.8 -0.1,-1.4 -0.4,-1.9 -0.3,-0.5 -0.7,-0.7 -1.3,-0.7 z"
       id="path3354"
       inkscape:connector-curvature="0"
       style="fill:#000000" /><path
       d="m 15.3,24.6 c 0.6,0 1,-0.2 1.3,-0.7 0.3,-0.5 0.4,-1.1 0.4,-1.9 0,-0.8 -0.1,-1.4 -0.4,-1.9 -0.3,-0.5 -0.7,-0.7 -1.3,-0.7 -0.6,0 -1,0.2 -1.3,0.7 -0.3,0.5 -0.4,1.1 -0.4,1.9 0,0.8 0.1,1.4 0.4,1.9 0.3,0.5 0.7,0.7 1.3,0.7 z"
       id="path3356"
       inkscape:connector-curvature="0"
       style="fill:#000000" /><path
       d="m 11.5,29.2 c -0.6,0 -1,0.2 -1.3,0.7 -0.3,0.5 -0.4,1.1 -0.4,1.9 0,0.8 0.1,1.4 0.4,1.9 0.3,0.5 0.7,0.7 1.3,0.7 0.6,0 1,-0.2 1.3,-0.7 0.3,-0.5 0.4,-1.1 0.4,-1.9 0,-0.8 -0.1,-1.4 -0.4,-1.9 -0.3,-0.5 -0.7,-0.7 -1.3,-0.7 z"
       id="path3358"
       inkscape:connector-curvature="0"
       style="fill:#000000" /><path
       d="m 11.5,38.6 c -0.6,0 -1,0.2 -1.3,0.7 -0.3,0.5 -0.4,1.1 -0.4,1.9 0,0.8 0.1,1.4 0.4,1.9 0.3,0.5 0.7,0.7 1.3,0.7 0.6,0 1,-0.2 1.3,-0.7 0.3,-0.5 0.4,-1.1 0.4,-1.9 0,-0.8 -0.1,-1.4 -0.4,-1.9 -0.3,-0.5 -0.7,-0.7 -1.3,-0.7 z"
       id="path3360"
       inkscape:connector-curvature="0"
       style="fill:#000000" /><path
       d="m 32.7,19.4 c -0.6,0 -1,0.2 -1.3,0.7 -0.2,0.5 -0.4,1.1 -0.4,1.9 0,0.8 0.1,1.4 0.4,1.9 0.3,0.5 0.7,0.7 1.3,0.7 0.6,0 1,-0.2 1.3,-0.7 0.3,-0.5 0.4,-1.1 0.4,-1.9 0,-0.8 -0.1,-1.4 -0.4,-1.9 -0.3,-0.5 -0.7,-0.7 -1.3,-0.7 z"
       id="path3362"
       inkscape:connector-curvature="0"
       style="fill:#000000" /><path
       d="m 30.4,0.5 -25.2,0 0,47 37.7,0 0,-34.6 L 30.4,0.5 Z M 19,18.6 l 2.5,0 0,6.9 -1.1,0 0,-5.9 -1.4,0 0,-1 z m -5.8,0.8 c 0.5,-0.7 1.2,-1 2.1,-1 0.9,0 1.7,0.3 2.1,1 0.5,0.7 0.7,1.5 0.7,2.6 0,1.1 -0.2,2 -0.7,2.6 -0.5,0.7 -1.2,1 -2.1,1 -0.9,0 -1.7,-0.3 -2.1,-1 -0.5,-0.7 -0.7,-1.5 -0.7,-2.6 -0.1,-1.1 0.2,-2 0.7,-2.6 z m -4.8,-0.8 2.5,0 0,6.9 -1.1,0 0,-5.9 -1.4,0 0,-1 z m 5.2,25.2 c -0.5,0.7 -1.2,1 -2.1,1 -0.9,0 -1.7,-0.3 -2.1,-1 -0.5,-0.7 -0.7,-1.5 -0.7,-2.6 0,-1.1 0.2,-2 0.7,-2.6 0.5,-0.7 1.2,-1 2.1,-1 0.9,0 1.7,0.3 2.1,1 0.5,0.7 0.7,1.5 0.7,2.6 0,1 -0.2,1.9 -0.7,2.6 z m 0,-9.4 c -0.5,0.7 -1.2,1 -2.1,1 -0.9,0 -1.7,-0.3 -2.1,-1 -0.5,-0.7 -0.7,-1.5 -0.7,-2.6 0,-1.1 0.2,-2 0.7,-2.6 0.5,-0.7 1.2,-1 2.1,-1 0.9,0 1.7,0.3 2.1,1 0.5,0.7 0.7,1.5 0.7,2.6 0,1 -0.2,1.9 -0.7,2.6 z m 1.6,-6.1 2.5,0 0,6.9 -1.1,0 0,-5.9 -1.4,0 0,-1 z m 5.3,15.5 c -0.5,0.7 -1.2,1 -2.1,1 -0.9,0 -1.7,-0.3 -2.1,-1 -0.5,-0.7 -0.7,-1.5 -0.7,-2.6 0,-1.1 0.2,-2 0.7,-2.6 0.5,-0.7 1.2,-1 2.1,-1 0.9,0 1.7,0.3 2.1,1 0.5,0.7 0.7,1.5 0.7,2.6 0,1 -0.3,1.9 -0.7,2.6 z m 4.1,0.9 -1.1,0 0,-5.9 -1.5,0 0,-1 2.5,0 0,6.9 z M 24.2,34.4 c -0.5,0.7 -1.2,1 -2.1,1 -0.9,0 -1.7,-0.3 -2.1,-1 -0.5,-0.7 -0.7,-1.5 -0.7,-2.6 0,-1.1 0.2,-2 0.7,-2.6 0.5,-0.7 1.2,-1 2.1,-1 0.9,0 1.7,0.3 2.1,1 0.5,0.7 0.7,1.5 0.7,2.6 0,1 -0.2,1.9 -0.7,2.6 z m 4.1,10.3 -1.1,0 0,-5.9 -1.4,0 0,-1 2.5,0 0,6.9 z m 0,-9.4 -1.1,0 0,-5.9 -1.4,0 0,-1 2.5,0 0,6.9 z M 28,24.6 c -0.5,0.7 -1.2,1 -2.1,1 -0.9,0 -1.7,-0.3 -2.1,-1 -0.5,-0.7 -0.7,-1.5 -0.7,-2.6 0,-1.1 0.2,-2 0.7,-2.6 0.5,-0.7 1.2,-1 2.1,-1 0.9,0 1.7,0.3 2.1,1 0.5,0.7 0.7,1.5 0.7,2.6 0,1.1 -0.2,2 -0.7,2.6 z m 6.8,19.2 c -0.5,0.7 -1.2,1 -2.1,1 -0.9,0 -1.7,-0.3 -2.1,-1 -0.5,-0.7 -0.7,-1.5 -0.7,-2.6 0,-1.1 0.2,-2 0.7,-2.6 0.5,-0.7 1.2,-1 2.1,-1 0.9,0 1.7,0.3 2.1,1 0.5,0.7 0.7,1.5 0.7,2.6 0.1,1 -0.2,1.9 -0.7,2.6 z m 0,-9.4 c -0.5,0.7 -1.2,1 -2.1,1 -0.9,0 -1.7,-0.3 -2.1,-1 -0.5,-0.7 -0.7,-1.5 -0.7,-2.6 0,-1.1 0.2,-2 0.7,-2.6 0.5,-0.7 1.2,-1 2.1,-1 0.9,0 1.7,0.3 2.1,1 0.5,0.7 0.7,1.5 0.7,2.6 0.1,1 -0.2,1.9 -0.7,2.6 z m 0,-9.8 c -0.5,0.7 -1.2,1 -2.1,1 -0.9,0 -1.7,-0.3 -2.1,-1 -0.5,-0.7 -0.7,-1.5 -0.7,-2.6 0,-1.1 0.2,-2 0.7,-2.6 0.5,-0.7 1.2,-1 2.1,-1 0.9,0 1.7,0.3 2.1,1 0.5,0.7 0.7,1.5 0.7,2.6 0.1,1.1 -0.2,2 -0.7,2.6 z m 4.1,20.1 -1.1,0 0,-5.9 -1.4,0 0,-1 2.5,0 0,6.9 z m 0,-9.4 -1.1,0 0,-5.9 -1.4,0 0,-1 2.5,0 0,6.9 z m 0,-9.8 -1.1,0 0,-5.9 -1.4,0 0,-1 2.5,0 0,6.9 z m -9.5,-11.6 0,-12.4 12.4,12.4 -12.4,0 z"
       id="path3364"
       inkscape:connector-curvature="0"
       style="fill:#000000" /></g></svg>