<?xml version="1.0" encoding="utf-8"?>
<!-- Generator: Adobe Illustrator 19.0.1, SVG Export Plug-In . SVG Version: 6.00 Build 0)  -->
<svg version="1.1" id="Layer_1" xmlns="http://www.w3.org/2000/svg" xmlns:xlink="http://www.w3.org/1999/xlink" x="0px" y="0px"
	 width="70px" height="70px" viewBox="0 0 70 70" style="enable-background:new 0 0 70 70;" xml:space="preserve">
<style type="text/css">
	.st0{fill:none;stroke:#CCCCCC;stroke-width:5;stroke-miterlimit:10;}
	.st1{fill:#008000;}
</style>
<g>
	<path class="st0" d="M64.2,25.7l-26.7-22c-0.9-0.8-2.2-0.8-3.2-0.3C33.8,3.5,33.4,3.7,33,4L5.9,25.4c-1.3,1-1.5,2.8-0.5,4
		c0.7,0.9,1.8,1.2,2.8,1v36.5h53.5V30.7c1,0.2,2.1-0.1,2.8-1C65.6,28.5,65.4,26.7,64.2,25.7z"/>
</g>
<g>
	<g transform="translate(-183.81841,-140.15614)">
		<path class="st1" d="M220.5,156c-2.7,0-4.9,3.8-4.9,8.6c0,1.5,0.2,2.9,0.6,4.2h0c0.1,0.3,0.2,0.7,0.3,0.9c0.2,0.6,0.5,1.2,0.9,1.7
			c0.3,0.5,0.7,0.9,1.1,1.2c0.2,0.1,0.3,0.3,0.5,0.4c0.4,0.2,0.9,0.4,1.4,0.4c0.5,0,1-0.1,1.4-0.4c0.1-0.4,0-0.8-0.3-1.1
			c-0.4,0.2-0.7,0.4-1.1,0.4c-0.4,0-0.8-0.1-1.2-0.4c-0.1,0-0.1-0.1-0.2-0.1c0,0,0,0,0,0c-0.1-0.1-0.1-0.1-0.2-0.2
			c-0.1-0.1-0.2-0.2-0.3-0.4c-0.2-0.2-0.3-0.4-0.5-0.7c-0.1-0.1-0.2-0.3-0.2-0.4c-0.7-1.4-1.2-3.3-1.2-5.4c0-4.1,1.7-7.6,3.8-7.6
			c2.1,0,3.8,3.5,3.8,7.6c0,1.8-0.3,3.4-0.9,4.8c0.3,0.2,0.6,0.5,0.9,0.7c0.7-1.5,1.1-3.4,1.1-5.5C225.3,159.8,223.2,156,220.5,156
			L220.5,156z M218.7,168.4c-0.4,0-0.8,0.1-1.2,0.2c0.4,1.3,1,2.4,1.8,2.9c0.5-0.5,1.3-0.6,1.9-0.3c0.2,0.1,0.3,0.2,0.4,0.3
			c0.4,0.4,0.6,1,0.5,1.6c0,0.1-0.1,0.3-0.1,0.4c-0.4,0.8-1.4,1.2-2.3,0.8c-0.5-0.2-0.8-0.7-0.9-1.2c-1.2-0.7-2.1-2.1-2.7-3.9
			c-1.2,0.7-2.2,1.7-2.8,3c-1.3,2.6-0.7,5.5,1.1,7.5l-7.1,14.6l1.3,3.1l3.2-0.9l0-0.1l-0.5-2.3l2.1-1l-0.5-2.3l2.1-1l-0.5-2.3l2.1-1
			l-0.5-2.3l2.1-1l0.6-1.3c2.7,0.2,5.4-1.2,6.6-3.8c1.3-2.6,0.7-5.6-1.1-7.6c-0.4-0.4-0.8-0.7-1.2-1.1c-0.2-0.2-0.5-0.3-0.8-0.4
			C221.1,168.5,219.9,168.3,218.7,168.4L218.7,168.4z M224.6,170.1c0.7,0.7,1.3,1.7,1.6,2.7c0.6,1.9,0.5,3.8-0.4,5.6
			c-1.3,2.6-3.9,4.2-6.8,4.1l0,0c0.7,0.4,1.5,0.6,2.3,0.7l4.3,15.6l3,1.5l1.8-2.8l0-0.1l-1.9-1.4l0.9-2.2l-1.9-1.4l0.9-2.2l-1.9-1.4
			l0.9-2.2l-1.9-1.4l0.9-2.2l-0.4-1.4c2.1-1.6,3.2-4.5,2.5-7.2C228.1,172.5,226.5,170.9,224.6,170.1L224.6,170.1z"/>
	</g>
</g>
</svg>
