<?xml version="1.0" encoding="utf-8"?>
<!-- Generator: Adobe Illustrator 19.0.1, SVG Export Plug-In . SVG Version: 6.00 Build 0)  -->
<svg version="1.1" id="real-property-svg" xmlns="http://www.w3.org/2000/svg" xmlns:xlink="http://www.w3.org/1999/xlink" x="0px" y="0px"
	 width="70px" height="70px" viewBox="0 0 124 124"  xml:space="preserve">
<circle cx="62" cy="62" r="56"/>
<path d="M68.664,89.63c3.714-1.04,6.833-2.971,9.21-5.942c6.685-8.022,4.159-19.906-5.348-25.254
	c-2.971-1.634-6.091-2.822-9.21-4.159c-1.783-0.743-3.565-1.634-5.051-2.822c-2.971-2.377-2.377-6.239,1.04-7.873
	c1.04-0.446,2.08-0.594,3.12-0.594c4.159-0.149,8.022,0.594,11.735,2.377c1.783,0.891,2.377,0.594,3.12-1.337
	c0.594-2.08,1.188-4.011,1.783-6.091c0.446-1.337-0.149-2.228-1.337-2.822c-2.377-1.04-4.754-1.783-7.428-2.228
	c-3.268-0.594-3.268-0.594-3.417-3.862c0-4.754,0-4.754-4.754-4.754c-0.743,0-1.337,0-2.08,0c-2.228,0-2.525,0.446-2.674,2.674
	c0,1.04,0,1.931,0,2.971c0,2.971,0,2.971-2.822,4.011c-6.833,2.525-11.141,7.13-11.587,14.707
	c-0.446,6.685,3.12,11.141,8.467,14.409c3.417,2.08,7.13,3.268,10.547,4.754c1.337,0.594,2.674,1.337,3.862,2.228
	c3.417,2.822,2.822,7.576-1.337,9.359c-2.228,0.891-4.457,1.188-6.833,0.891c-3.565-0.446-7.13-1.337-10.399-3.12
	c-1.931-1.04-2.525-0.743-3.12,1.337c-0.594,1.783-1.04,3.565-1.486,5.348c-0.594,2.377-0.446,2.971,1.931,4.159
	c2.971,1.486,6.091,2.228,9.359,2.674c2.525,0.446,2.674,0.446,2.674,3.12c0,1.188,0,2.377,0,3.565c0,1.486,0.743,2.377,2.228,2.377
	c1.783,0,3.565,0,5.199,0c1.486,0,2.228-0.743,2.228-2.228c0-1.634,0.149-3.268,0-4.902C66.287,90.967,67.03,90.076,68.664,89.63z"
	/>
</svg>
