<?xml version="1.0" encoding="utf-8"?>
<!-- Generator: Adobe Illustrator 19.0.1, SVG Export Plug-In . SVG Version: 6.00 Build 0)  -->
<svg version="1.1" id="Layer_1" xmlns="http://www.w3.org/2000/svg" xmlns:xlink="http://www.w3.org/1999/xlink" x="0px" y="0px"
	 width="70px" height="70px" viewBox="0 0 70 70" enable-background="new 0 0 70 70" xml:space="preserve">
<path fill="#325d88" d="M53.12,65.12H16.88c-6.6,0-12-5.4-12-12V16.88c0-6.6,5.4-12,12-12h36.24c6.6,0,12,5.4,12,12v36.24
	C65.12,59.72,59.72,65.12,53.12,65.12z"/>
<g>
	<g id="XMLID_2_">
		<g>
			<path fill="#FFFFFF" d="M23.626,50.563l-8.627-8.618c-1.988-1.988-1.988-5.245,0-7.26c0.994-0.967,2.281-1.5,3.639-1.5
				c1.376,0,2.663,0.533,3.621,1.5l5.237,5.237l20.263-20.52c0.95-0.95,2.21-1.731,3.55-1.731c0.009,0,0.018,0,0.018,0
				c1.367,0,2.663,0.808,3.639,1.793c0.985,0.985,1.527,2.405,1.527,3.763c0,1.349-0.524,2.68-1.473,3.63L31.081,50.829
				c-0.976,0.976-2.254,1.5-3.532,1.5c-1.127,0-2.263-0.382-3.204-1.154c-0.044-0.027-0.08-0.062-0.115-0.089
				c-0.098-0.08-0.231-0.186-0.355-0.293C23.813,50.749,23.715,50.661,23.626,50.563z"/>
		</g>
		<g>
		</g>
	</g>
</g>
</svg>
